<svg xmlns="http://www.w3.org/2000/svg" width="90.326" height="96.778" viewBox="0 0 90.326 96.778"><defs><style>.a{fill:#1de9b6;}</style></defs><g transform="translate(-160 -229)"><path class="a" d="M10.628,52.736c4.607,9.033,8.1,17.218,10.907,23.8,5.915,13.87,9.484,22.241,16.338,22.241,7.27,0,8.065-5.682,8.065-17.743,0-14.917,1.461-16.13,3.226-16.13s3.226,1.213,3.226,16.13c0,12.06.8,17.743,8.065,17.743,6.854,0,10.423-8.371,16.338-22.241,2.807-6.583,6.3-14.773,10.907-23.8l.54-1.058c2.861-5.56,6.087-11.863,6.087-19.031C94.326,15.462,82.99,2,68.519,2a26.717,26.717,0,0,0-15.5,5.171,7.113,7.113,0,0,1-7.72,0A26.717,26.717,0,0,0,29.808,2C15.336,2,4,15.462,4,32.646c0,7.168,3.234,13.472,6.087,19.033Zm19.18-47.51A23.346,23.346,0,0,1,43.345,9.733h0a27.932,27.932,0,0,0,16.076,4.608,37.286,37.286,0,0,0,11.839-2L70.24,9.275a31.735,31.735,0,0,1-16.581,1.263,7.828,7.828,0,0,0,1.321-.806A23.346,23.346,0,0,1,68.519,5.226C81.182,5.226,91.1,17.27,91.1,32.646c0,6.389-3.045,12.323-5.731,17.559l-.545,1.063c-4.657,9.129-8.173,17.377-11,24-5.208,12.217-8.649,20.282-13.372,20.282-3.511,0-4.839-1.252-4.839-14.517,0-13.649-.9-19.356-6.452-19.356s-6.452,5.707-6.452,19.356c0,13.265-1.327,14.517-4.839,14.517-4.723,0-8.163-8.065-13.372-20.282-2.826-6.626-6.342-14.873-11-24l-.545-1.063c-2.686-5.236-5.731-11.17-5.731-17.559C7.226,17.27,17.144,5.226,29.808,5.226Z" transform="translate(156 227)"/><path class="a" d="M28.969,9.226V6C22.312,6,9.365,11.032,8,30.08l3.226.229C12.7,9.568,28.311,9.226,28.969,9.226Z" transform="translate(158.452 229.452)"/><rect class="a" width="4" height="4" transform="translate(166.163 262.389)"/><path class="a" d="M60.177,21H56.951c0,.076-.153,7.768-7.765,18.425L51.812,41.3C60.082,29.71,60.177,21.35,60.177,21Z" transform="translate(183.698 238.646)"/></g></svg>